<?xml version="1.0" standalone="no"?>
<!DOCTYPE svg PUBLIC "-//W3C//DTD SVG 1.1//EN" "http://www.w3.org/Graphics/SVG/1.1/DTD/svg11.dtd" >
<!--
2013-9-30: Created.
-->
<svg>
<metadata>
Created by iconfont
</metadata>
<defs>

<font id="iconfont" horiz-adv-x="1024" >
  <font-face
    font-family="iconfont"
    font-weight="500"
    font-stretch="normal"
    units-per-em="1024"
    ascent="896"
    descent="-128"
  />
    <missing-glyph />
    
    <glyph glyph-name="x" unicode="x" horiz-adv-x="1001"
d="M281 543q-27 -1 -53 -1h-83q-18 0 -36.5 -6t-32.5 -18.5t-23 -32t-9 -45.5v-76h912v41q0 16 -0.5 30t-0.5 18q0 13 -5 29t-17 29.5t-31.5 22.5t-49.5 9h-133v-97h-438v97zM955 310v-52q0 -23 0.5 -52t0.5 -58t-10.5 -47.5t-26 -30t-33 -16t-31.5 -4.5q-14 -1 -29.5 -0.5
t-29.5 0.5h-32l-45 128h-439l-44 -128h-29h-34q-20 0 -45 1q-25 0 -41 9.5t-25.5 23t-13.5 29.5t-4 30v167h911zM163 247q-12 0 -21 -8.5t-9 -21.5t9 -21.5t21 -8.5q13 0 22 8.5t9 21.5t-9 21.5t-22 8.5zM316 123q-8 -26 -14 -48q-5 -19 -10.5 -37t-7.5 -25t-3 -15t1 -14.5
t9.5 -10.5t21.5 -4h37h67h81h80h64h36q23 0 34 12t2 38q-5 13 -9.5 30.5t-9.5 34.5q-5 19 -11 39h-368zM336 498v228q0 11 2.5 23t10 21.5t20.5 15.5t34 6h188q31 0 51.5 -14.5t20.5 -52.5v-227h-327z" />
    

    
    <glyph glyph-name="fangdajing" unicode="&#58890;" d="M938.394297-54.129436l-224.914516 214.484979c53.982472 62.410422 86.640266 143.775544 86.640266 232.769414 0 196.60475-159.37994 355.98469-355.98469 355.98469s-355.98469-159.37994-355.98469-355.98469S247.529583 37.139244 444.134333 37.139244c88.663342 0 169.752172 32.41834 232.07152 86.042655l225.870284-215.395722c10.165524-9.69378 26.152637-9.69378 36.31816 0l0 0C949.265902-81.846708 949.265902-64.497575 938.394297-54.129436zM127.703497 393.123934c0 174.760233 141.671627 316.430836 316.430836 316.430836S760.566192 567.884167 760.566192 393.123934 618.894565 76.693098 444.134333 76.693098 127.703497 218.363701 127.703497 393.123934z"  horiz-adv-x="1024" />

    
    <glyph glyph-name="dizhi" unicode="&#59053;" d="M581.573 681.079c0 39.319-31.769 71.211-70.933 71.211-39.164 0-70.902-31.893-70.902-71.211 0-39.35 31.738-71.211 70.902-71.211C549.804 609.868 581.573 641.73 581.573 681.079zM510.64 184.145c0 0 260.284 258.127 260.283 483.991C770.923 894 510.64 894 510.64 894S250.357 894 250.357 668.136C250.357 442.272 510.64 184.145 510.64 184.145zM328.314 699.043c1.696 7.518 4.531 14.635 7.396 21.754 1.017 2.496 1.572 5.084 2.712 7.548 3.052 6.563 7.026 12.634 11 18.736 1.971 3.02 3.545 6.193 5.701 9.12 3.173 4.191 6.963 7.89 10.538 11.802 4.098 4.529 8.011 9.152 12.664 13.312 1.972 1.757 4.283 3.175 6.348 4.839 6.903 5.638 14.02 11.03 21.938 15.684 0.278 0.185 0.555 0.277 0.833 0.431 19.135 11.186 40.951 19.568 65.324 23.82 12.172 2.188 24.774 3.359 37.686 3.359 0.062 0 0.124 0.03 0.186 0.03 0.031 0 0.062 0 0.092 0 13.126 0 25.882-1.264 38.241-3.512 6.717-1.204 12.817-3.36 19.165-5.178 5.425-1.509 11.063-2.681 16.27-4.653 5.302-2.002 10.048-4.684 15.069-7.087 5.978-2.835 12.019-5.516 17.595-8.875 2.465-1.572 4.622-3.39 7.025-5.023 35.097-23.696 60.425-57.591 68.961-96.971 2.313-9.952 3.513-19.997 3.511-30.042 0-161.34-185.929-387.204-185.929-387.204S324.74 506.797 324.74 668.137C324.74 678.521 326.004 688.875 328.314 699.043zM983.908 420.762c-3.943 19.723-118.326-7.885-165.654-23.663 0 0-21.847-63.229 0-70.994 26.592-9.43 94.66 23.663 94.66 23.663l0-307.611c0 0-240.564-98.573-260.284-94.63-19.72 3.945-260.282 106.462-283.947 94.63C345.017 30.324 108.4-28.808 108.4-28.808L108.4 278.774c0 0 109.513 26.84 118.325 47.329 10.6 24.807 7.889 82.828-70.995 47.329-78.884-35.497-118.325-70.993-118.325-70.993l0-378.578c0 0 23.665-63.105 70.995-47.329 47.33 15.777 260.283 94.659 260.283 94.659s252.395-90.714 283.947-94.659c31.554-3.943 330.292 87.511 331.278 118.324C987.143 98.761 987.821 401.042 983.908 420.762z"  horiz-adv-x="1024" />

    
    <glyph glyph-name="wodepintuan" unicode="&#58900;" d="M959.195553 730.69307l0-686.382633c0-18.180058-2.478448-34.408671-7.41897-48.718585-4.956895-14.278191-13.782911-27.341718-26.50977-39.20593-12.727882-11.847839-42.578748-17.779945-89.587388-17.779945L174.0475-61.394023c-37.814234 0-62.997799 5.452175-75.54865 16.309454-12.551874 10.889001-21.298072 22.912849-26.238594 36.055171-4.956895 13.158694-7.41897 27.853371-7.41897 44.081984L64.841286 739.455641c0 32.473599 8.123005 55.69037 24.38334 69.664639 16.244986 13.95892 41.875736 20.946055 76.875878 20.946055l685.48724 0c40.276309 0 65.811892-4.877077 76.588329-14.613836 10.776438-9.753131 18.643616-21.600971 23.600511-35.55989C956.717106 765.917316 959.195553 749.529067 959.195553 730.69307zM836.734454 773.06511l-653.668557 0.49528c-28.636201 0-45.425585-6.251378-50.366108-18.755156-4.956895-12.503778-7.41897-23.791869-7.41897-33.865295l0-668.346861c0-9.737782 1.407046-18.499329 4.237511-26.302039 2.814092-7.786337 7.770987-14.774495 14.83794-20.946055s22.449291-9.257851 46.128597-9.257851l629.812219 0c31.450293 0 51.949162 5.452175 61.494563 16.309454 9.5454 10.889001 14.326287 28.348652 14.326287 52.380998L896.117936 713.153602c0 12.983709-2.046612 25.071002-6.108115 36.279275s-10.872628 17.876136-20.402679 19.986193C860.062765 771.530151 849.109296 772.744815 836.734454 773.06511zM691.473069 552.398338 691.473069 124.209162c0-59.431577-31.642674-93.536326-94.895277-102.298897-26.861788-3.901867-64.149019-1.790786-111.859647 6.315846-47.711652 8.138354-76.076676 16.324804-85.09405 24.607444s-13.158694 18.275225-12.455683 29.963429c0.704035 15.573697 9.193383 24.191982 25.454742 25.822109 5.644557 0.320295 11.384281-0.335644 17.220197-1.950422 5.820566-1.63115 24.559349-7.546883 56.202023-17.779945 31.626301-10.233062 59.815317-13.063527 84.550675-8.522094 16.612353 2.589988 30.571273 9.241478 41.892109 19.954471 11.304464 10.712993 16.96437 25.502837 16.96437 44.337811l0 322.484715c-42.771129-50.67003-86.773296-98.093109-132.0065-142.254911-45.248553-44.161802-102.410438-89.555665-171.498956-136.14782-69.104891-46.592155-111.252827-69.568449-126.442784-68.913533-7.066953 0-13.782911 2.111081-20.146852 6.332219s-9.8176 10.216689-10.344602 18.019399c-0.528026 7.786337 3.805676 16.228613 12.999059 25.326828 5.995551 5.852288 14.821567 12.344143 26.494421 19.490913l44.002167 24.846898c16.612353 9.737782 47.359634 30.187533 92.257194 61.366649 44.881187 31.179117 90.562599 70.800509 137.043213 118.863155 46.464241 48.063669 92.672656 100.988042 138.625244 158.804842l-419.346787-0.479931c-8.842389-0.335644-16.356526 1.935072-22.529109 6.811126-6.187933 4.860704-8.922207 12.503778-8.218172 22.896476 0.704035 17.524119 11.128455 26.302039 31.275307 26.302039l427.837158 0L629.452527 733.603353c0 7.14677 3.437286 13.239536 10.329253 18.275225 6.890944 5.02034 14.582113 7.546883 23.072485 7.546883 8.826016-0.320295 15.813151-2.925632 20.929682-7.786337 5.116531-4.877077 7.691169-10.889001 7.691169-18.035772l0-125.195374 150.042271 0c7.066953 0 13.414521-2.446725 19.075451-7.30743 5.659907-4.877077 8.490372-11.688203 8.490372-20.449751-0.352017-9.098215-3.629667-16.08535-9.8176-20.946055-6.187933-4.877077-11.927657-7.30743-17.220197-7.30743L691.473069 552.397315z"  horiz-adv-x="1024" />

    
    <glyph glyph-name="gouwuche" unicode="&#58965;" d="M1042.537043 214.997714C1040.1653 203.295036 1030.1166 194.744278 1018.133057 194.213757L427.038552 168.249413C426.664066 168.218206 426.258373 168.218206 425.85268 168.218206 411.996709 168.218206 400.450066 179.109499 399.85713 193.059092 399.20178 207.383171 410.373937 219.491543 424.76043 220.146893L995.507878 245.206229 1089.378966 705.105903 326.926035 705.105903C312.508335 705.105903 300.868071 716.746168 300.868071 731.101454 300.868071 745.425533 312.508335 757.065797 326.926035 757.065797L1121.272666 757.065797C1129.105659 757.065797 1136.501752 753.570597 1141.463688 747.516411 1146.394417 741.493432 1148.391674 733.535611 1146.80011 725.921068L1042.537043 214.997714ZM1051.743151 105.460641C1066.129644 105.460641 1077.801115 93.820376 1077.801115 79.496297 1077.801115 65.141011 1066.129644 53.500747 1051.743151 53.500747L330.327614 53.500747C317.470271 53.500747 306.547771 62.86289 304.581721 75.53299L186.213025 843.66562 26.057965 843.66562C11.640265 843.66562 0 855.305885 0 869.661171 0 883.98525 11.640265 895.625514 26.057965 895.625514L208.588547 895.625514C221.477097 895.625514 232.399598 886.263371 234.365648 873.593271L352.703136 105.460641 1051.743151 105.460641ZM424.229909 22.699296C465.922653 22.699296 499.81361-11.129248 499.81361-52.665956 499.81361-94.202664 465.922653-128 424.229909-128 382.505958-128 348.583793-94.202664 348.583793-52.665956 348.583793-11.129248 382.505958 22.699296 424.229909 22.699296ZM424.229909-76.040106C437.149666-76.040106 447.666474-65.554506 447.666474-52.665956 447.666474-39.746198 437.149666-29.260598 424.229909-29.260598 411.247737-29.260598 400.73093-39.746198 400.73093-52.665956 400.73093-65.554506 411.247737-76.040106 424.229909-76.040106ZM961.83537 22.699296C1003.528114 22.699296 1037.450279-11.129248 1037.450279-52.665956 1037.450279-94.202664 1003.528114-128 961.83537-128 920.142626-128 886.220461-94.202664 886.220461-52.665956 886.220461-11.129248 920.142626 22.699296 961.83537 22.699296ZM961.83537-76.040106C974.786335-76.040106 985.334349-65.554506 985.334349-52.665956 985.334349-39.746198 974.786335-29.260598 961.83537-29.260598 948.915613-29.260598 938.367598-39.746198 938.367598-52.665956 938.367598-65.554506 948.915613-76.040106 961.83537-76.040106Z"  horiz-adv-x="1148" />

    
    <glyph glyph-name="ren" unicode="&#59121;" d="M942.5 107.25c10 15 17.5 28.75 26.25 45 2.5 3.75 3.75 7.5 5 11.25 6.25 12.5 11.25 25 16.25 37.5 2.5 5 3.75 10 6.25 16.25 3.75 12.5 7.5 23.75 11.25 36.25 1.25 6.25 3.75 11.25 5 17.5 2.5 12.5 5 26.25 7.5 38.75 1.25 6.25 2.5 11.25 2.5 16.25 2.5 18.75 3.75 37.5 3.75 57.5 0 282.5-230 512.5-512.5 512.5C230 896 0 666 0 383.5c0-18.75 1.25-38.75 3.75-57.5 1.25-6.25 1.25-11.25 2.5-17.5C7.5 297.25 10 283.5 12.5 271c1.25-6.25 2.5-12.5 5-17.5 3.75-12.5 7.5-25 11.25-36.25 1.25-5 3.75-10 6.25-16.25 5-12.5 10-26.25 16.25-37.5 1.25-3.75 3.75-7.5 5-11.25 7.5-15 16.25-30 26.25-45 0 0 1.25-1.25 1.25-1.25C175-35.25 332.5-127.75 512.5-127.75c180 0 337.5 93.75 428.75 233.75C941.25 106 941.25 106 942.5 107.25zM512.5 651c103.75 0 188.75-85 188.75-188.75C700 358.5 616.25 274.75 512.5 274.75c-103.75 0-188.75 85-188.75 188.75C323.75 566 408.75 651 512.5 651zM201.25 63.5c53.75 122.5 175 203.75 311.25 203.75 136.25 0 257.5-81.25 311.25-203.75C742.5-15.25 632.5-62.75 512.5-62.75 391.25-62.75 281.25-15.25 201.25 63.5z"  horiz-adv-x="1027" />

    
    <glyph glyph-name="shouye" unicode="&#58979;" d="M809.102167-127.997953 605.175657-127.997953 605.175657 178.785665c0 17.388955-15.75679 31.548372-35.136066 31.548372L453.953246 210.334038c-19.35574 0-35.11253-14.159417-35.11253-31.548372l0-306.784642L214.914206-127.998977c-55.945917 0-101.474629 43.121908-101.474629 96.123787L113.439577 341.117033 41.521976 341.117033c-16.852746 0-31.822617 9.761269-38.115919 24.862123-6.126504 14.647532-2.908222 30.845365 8.414605 42.275638L482.295616 882.994867c15.44673 15.565433 43.955898 15.554176 59.402628 0.01228l470.47393-474.752352c11.322827-11.405714 14.541108-27.603547 8.438141-42.251079-6.293302-15.12439-21.263173-24.885659-38.139455-24.885659l-71.893041 0 0-372.992222C910.577819-84.877069 865.048084-127.997953 809.102167-127.997953zM510.041402 855.511046 39.567471 380.76995l112.916158-0.607841 0-412.037299c0-31.465485 28.008774-57.077688 62.429553-57.077688l164.881434 0L379.794616 178.785665c0 38.926373 33.253192 70.593449 74.157606 70.593449l116.087368 0c40.904414 0 74.181142-31.668099 74.181142-70.593449l0-267.738543 164.881434 0c34.420779 0 62.429553 25.613226 62.429553 57.077688L871.53172 380.162109l112.892622 0.607841L513.951435 855.511046"  horiz-adv-x="1024" />

    
    <glyph glyph-name="dingdan" unicode="&#59018;" d="M608.122413 876.413928H387.95488c-27.018735 0-48.613634-24.005493-48.613634-53.736145s21.594899-53.836587 48.613634-53.836586h221.573712c25.612555 0 47.307896 24.105934 47.307896 53.836586s-21.594899 53.736145-48.714075 53.736145z m0 0M847.273369 840.556351H737.591368c1.104855-5.926042 1.807945-11.852084 1.807945-17.878568 0-45.198627-32.743894-89.794605-71.815595-89.794605H330.602845c-41.08053 0-73.924865 44.495537-73.924866 89.794605 0 6.026484 0.70309 11.952526 1.807945 17.878568H147.498185c-89.191957 0-111.08818-50.622462-111.08818-123.542913v-722.776263c0-78.344286 31.438156-122.237175 117.918195-122.237175h686.316037c86.480039 0 128.564983 34.350956 128.564983 122.237175V717.013438c-0.100441 73.020893-39.473467 123.542913-121.935851 123.542913zM734.578127 127.020696H257.682393c-17.577244 0-35.154487 21.594899-35.154487 39.172144s14.865326 32.543011 32.44257 32.543011h475.489553c17.577244 0 32.44257-13.660029 33.748308-32.543011 0.100441-17.677685-12.052967-39.172143-29.63021-39.172144z m2.008827 191.340854H259.691221c-17.577244 0-28.726238 18.882982-28.726238 36.560667 0 17.577244 14.865326 35.254929 32.44257 35.254929h475.489553c17.577244 0 32.44257-16.271506 33.748308-35.254929-0.100441-17.677685-18.581658-36.560667-36.05846-36.560667z m0 196.563806H259.691221c-17.577244 0-28.726238 18.882982-28.726238 36.560667 0 17.577244 14.865326 35.254929 32.44257 35.254928h475.489553c17.577244 0 32.44257-16.371947 33.748308-35.254928-0.100441-17.677685-18.581658-36.560667-36.05846-36.560667z m0 0"  horiz-adv-x="1024" />

    
    <glyph glyph-name="daifukuan" unicode="&#58903;" d="M1051.352187 179.722034a29.972281 29.972281 0 0 1-29.97228-29.813488V-2.215666a59.944562 59.944562 0 0 0-59.924713-59.944562H125.804183a59.98426 59.98426 0 0 0-59.924713 59.944562V770.215666a59.944562 59.944562 0 0 0 59.924713 59.924713h835.67086a59.904863 59.904863 0 0 0 59.924713-59.924713V609.357809a29.972281 29.972281 0 1 1 59.944562 0V776.210122A113.815271 113.815271 0 0 1 967.489349 890.045242H119.809727A113.83512 113.83512 0 0 1 5.954758 776.210122v-784.400395a113.854969 113.854969 0 0 1 113.854969-113.854969H967.44965a113.83512 113.83512 0 0 1 113.854969 113.854969v158.098819a29.972281 29.972281 0 0 1-29.952432 29.813488M1059.867491 541.493419H623.403594c-59.01165 0-106.907752-44.958421-112.703716-102.421834-0.674873-1.032158-1.151253-2.500998-1.190952-5.180639v-94.839443a113.854969 113.854969 0 0 1 113.894668-113.854969h436.463897a113.874818 113.874818 0 0 1 113.894668 113.854969V427.658299a113.83512 113.83512 0 0 1-113.894668 113.83512m53.950106-196.42761a59.98426 59.98426 0 0 0-59.924713-59.944562H629.417899a59.944562 59.944562 0 0 0-59.964411 59.944562v76.598034a59.944562 59.944562 0 0 0 59.964411 59.924713h424.494834a59.98426 59.98426 0 0 0 59.924713-59.924713v-76.598034zM1019.672876 420.532439a36.542364 36.542364 0 1 1-0.039698-73.084727 36.542364 36.542364 0 0 1 0.039698 73.084727"  horiz-adv-x="1179" />

    
    <glyph glyph-name="fenlei" unicode="&#58916;" d="M473.1 800.2H114c-10.1 0-18.2-8.2-18.2-18.2v-359.1c0-10.1 8.2-18.2 18.2-18.2h359.1c10.1 0 18.2 8.2 18.2 18.2V782c0 10.1-8.2 18.2-18.2 18.2z m-18.2-359.1H132.2V763.8h322.7v-322.7zM910 800.2H550.9c-10.1 0-18.2-8.2-18.2-18.2v-359.1c0-10.1 8.2-18.2 18.2-18.2H910c10.1 0 18.2 8.2 18.2 18.2V782c0 10.1-8.1 18.2-18.2 18.2z m-18.2-359.1H569.1V763.8h322.7v-322.7zM473.1 363.3H114c-10.1 0-18.2-8.2-18.2-18.2V-14c0-10.1 8.2-18.2 18.2-18.2h359.1c10.1 0 18.2 8.2 18.2 18.2V345.1c0 10-8.2 18.2-18.2 18.2z m-18.2-359.1H132.2V326.9h322.7v-322.7zM910 363.3H550.9c-10.1 0-18.2-8.2-18.2-18.2V-14c0-10.1 8.2-18.2 18.2-18.2H910c10.1 0 18.2 8.2 18.2 18.2V345.1c0 10-8.1 18.2-18.2 18.2z m-18.2-359.1H569.1V326.9h322.7v-322.7z"  horiz-adv-x="1024" />

    
    <glyph glyph-name="laba" unicode="&#59246;" d="M935.594531 830.065312h-15.871479c-47.65844 0-86.432535-38.773072-86.432535-86.432535v-46.536896l-98.850355-31.441083c-194.515159-61.869093-395.46589-125.784798-593.430614-188.647521-1.130753 16.008602-7.902994 31.399127-19.100011 42.989093-12.627598 13.07683-30.273491 20.709671-48.447408 20.963451-18.48091 0.586354-36.149315-6.154163-49.52188-18.799158-13.311167-12.583596-21.166065-30.303166-21.552876-48.616254l-0.004093-0.246617c-0.544399-69.37709-0.544399-139.731438 0-209.109552l0.008187-0.416485c0.542352-17.966187 7.951089-34.749432 20.86112-47.254234 12.884448-12.481266 29.848819-19.354813 47.76691-19.354813 0.529049 0 1.057075 0.00614 1.588171 0.018419 18.178011 0.028653 35.930327 7.453762 48.718585 20.38119 11.498892 11.623735 18.481933 27.202549 19.659758 43.441394a648659.698005 648659.698005 0 0 0 449.961039-142.992714c-6.187933-67.406203-63.033615-120.375601-132.026966-120.375602-73.113181 0-132.594901 59.481719-132.5949 132.593878 0 10.280134-8.333806 18.61394-18.61394 18.613939s-18.61394-8.333806-18.61394-18.613939c0-93.640704 76.182077-169.82278 169.823803-169.822781 85.5924 0 156.585291 63.652715 168.159908 146.105613 49.054229-15.613606 97.42489-31.016411 145.256268-46.254464l60.956304-19.290345v-16.600073c0-47.659463 38.774095-86.432535 86.432535-86.432535h15.871479c47.659463 0 86.432535 38.774095 86.432535 86.432535V743.632777c-0.002047 47.659463-38.776142 86.432535-86.435605 86.432535zM103.950514 266.278855c0.109494-8.369621-3.203972-16.582677-9.092076-22.534226-5.868661-5.932106-14.017248-9.334599-22.433942-9.334599l-0.270153 0.001023-0.270152-0.007163c-0.289596-0.008186-0.577145-0.01228-0.864694-0.01228-17.039072 0-30.801517 13.304004-31.410384 30.32261-0.541329 69.063959-0.540306 139.090848 0 208.15276 0.206708 8.379854 3.812839 16.48137 9.906627 22.242584a31.544437 31.544437 0 0 0 22.867824 8.637727l0.456395-0.010233c8.358365-0.088004 16.482393-3.586688 22.291702-9.602705 5.807263-6.011924 9.023514-14.251585 8.821922-22.608927l-0.005116-205.002001 0.002047-0.24457z m729.266325-186.238658l-49.615001 15.70161A615365.894627 615365.894627 0 0 1 142.30096 299.644777c0.410346 47.251164 0.272199 94.276177 0.071631 138.735761 201.220884 63.892169 405.620158 128.904859 603.353615 191.798281l87.562264 27.850301-0.071631-577.988923z m151.582347-55.671951c0-27.131941-22.072715-49.204655-49.204655-49.204655h-15.871479c-27.130917 0-49.203632 22.072715-49.203632 49.204655V685.689087l0.00307 22.127973-0.00307-0.001023v35.815717c0 27.130917 22.072715 49.203632 49.203632 49.203632h15.871479c27.131941 0 49.204655-22.072715 49.204655-49.203632v-719.263508z"  horiz-adv-x="1024" />

    
    <glyph glyph-name="leixing" unicode="&#58999;" d="M518.72-1.92l-436.032 194.688a512.384 512.384 0 0 0-67.136 30.72c0-24.256 6.144-51.2 28.8-63.104l426.944-190.976c37.76-17.664 54.016-17.664 94.912 0l426.88 190.976c21.12 9.792 28.8 38.272 28.8 63.04-27.456-13.632-66.304-33.152-67.072-33.28l-436.096-190.72v-1.28M41.28 559.616l430.528-191.36c38.016-17.792 54.4-17.792 95.68 0l430.528 191.36c31.68 14.656 32.768 76.8 0 94.528L567.488 879.04c-33.856 19.84-57.6 18.816-95.68 0L41.28 654.08c-32.768-20.864-33.792-76.8 0-94.528zM520 858.24c0.448-0.128 2.24-0.384 2.624-0.64l466.56-249.28-467.84-209.472L49.472 608.32 521.344 858.24h-1.408zM44.352 360.448l426.944-190.976c37.76-17.728 54.016-17.728 94.912 0l426.88 190.976c21.12 9.728 28.8 39.616 28.8 64.32-27.456-13.632-66.304-33.088-67.072-33.28l-436.096-193.344-436.032 193.28c1.472-0.896-38.592 17.152-67.136 33.344 0-24.192 6.144-52.416 28.8-64.32"  horiz-adv-x="1024" />

    
    <glyph glyph-name="tuikuan" unicode="&#58881;" d="M739.130738-127.988035a520.752773 520.752773 0 0 0-47.21233 2.160275c-68.825724 6.294711-134.361182 25.880769-194.782435 58.211791-58.362012 31.230277-109.523992 72.977442-152.064809 124.080927s-74.316148 108.986914-94.441942 172.044369c-20.837024 65.282872-28.211209 133.283038-21.916497 202.110091C240.416767 558.603465 299.222799 676.627643 394.300195 762.950937c94.49113 85.791533 216.531428 133.038428 343.642059 133.038428 15.653691 0 31.540027-0.727182 47.216319-2.160276 105.853517-9.679365 204.420589-51.103486 285.044742-119.792281 78.845416-67.174608 134.932824-155.262017 162.200158-254.739729l0.475925-1.736197 77.2621 17.404512-64.790993-120.79199a23.869386 23.869386 0 0 0-15.407752-11.387645c-1.721574-0.388185-3.480371-0.584936-5.228533-0.584936-4.861618 0-9.570354 1.48627-13.617049 4.297951a24.607204 24.607204 0 0 0-1.320095 0.973122l-108.952349 80.344979 80.467284 18.123717-0.533089 1.910349C1125.578165 705.344024 943.674962 843.275975 738.400897 843.275975c-253.246812 0-459.278634-206.030493-459.278634-459.275975 0-253.244153 206.030493-459.275975 459.278634-459.278634 177.726227 0 341.218562 103.988368 416.513149 264.922936 0.389514 0.965145 0.792323 1.831914 1.231025 2.657472l0.130281 0.237963a26.330107 26.330107 0 0 0 25.532467 13.622367c14.471854-1.325412 25.16954-14.176727 23.845457-28.647252a26.369989 26.369989 0 0 0-3.510947-10.930331l-0.082423-0.154211c-40.905654-87.13024-105.510531-160.845499-186.83262-213.17735-82.590337-53.146774-178.062565-81.240995-276.096548-81.240995zM754.320469 73.46932c-14.309667 0-25.951228 11.64156-25.951228 25.949898V268.308919h-113.195796c-14.308338 0-25.948569 11.64156-25.948569 25.949899s11.640231 25.948569 25.948569 25.948568h113.194467v87.225957l-1.879773 0.123634h-111.314694c-14.308338 0-25.948569 11.640231-25.948569 25.949898 0 14.308338 11.640231 25.948569 25.948569 25.948569h74.086162l-104.599892 104.670351c-5.09958 4.953346-7.89531 11.556479-7.89531 18.614266 0 7.234598 2.92734 13.958705 8.243613 18.930663 4.837689 4.526609 11.125753 7.019235 17.706286 7.019235 6.579203 0 12.869926-2.492626 17.708944-7.019235l0.179469-0.166175 133.716422-133.715093L887.693906 601.158905h0.02127l0.583607 0.57696c4.942711 5.124839 11.569773 7.947156 18.659466 7.947156s13.715425-2.822317 18.656806-7.947156c4.704748-4.872253 7.291762-11.26534 7.289104-18.002742 0-6.76399-2.600307-13.170371-7.323668-18.043953l-106.204478-106.237714h74.083503c14.309667 0 25.951228-11.640231 25.951227-25.948569 0-14.308338-11.64156-25.949898-25.951227-25.949898h-113.197126v-1.943583l0.006647-0.123635-0.001329-85.282373h113.193137c14.309667 0 25.951228-11.640231 25.951228-25.947239 0-14.309667-11.64156-25.951228-25.951228-25.951228h-113.193137v-168.889701c0.001329-14.30435-11.640231-25.94591-25.947239-25.94591z"  horiz-adv-x="1695" />

    
    <glyph glyph-name="guanzhu" unicode="&#58905;" d="M1010.553 542.42c-70.886 106.002-301.25 88.346-301.25 88.346-70.886 282.695-194.931 265.022-194.931 265.022-124.045-17.655-194.931-265.022-194.931-265.022-265.816 17.655-301.25-70.674-301.25-70.674-88.611-123.674 177.223-318.040 177.223-318.040-106.319-318.040 17.708-353.368 17.708-353.368 141.771-70.674 279.375 106.231 301.25 106.019 17.726-17.673 230.365-159.020 318.976-106.019s17.726 371.041 17.726 371.041 230.382 176.675 159.479 282.695zM777.982 277.38s-17.708 0 0-53.001c17.726-53.001 70.886-247.367 0-282.695 0 0-70.886 0-230.365 123.674 0 0-19.668 17.885-53.16 0-22.087-11.794-230.365-159.020-265.816-106.002-35.434 53.001 17.726 229.694 35.434 282.695 0 0 17.726 35.346-17.708 53.001-35.469 17.673-177.223 141.347-177.223 194.348 0 0 0 88.346 301.25 70.674 0 0 88.611 265.022 141.771 265.022s53.16-35.328 159.497-265.022c0 0 265.816 17.655 283.542-70.674-0.018 0 35.434-17.655-177.223-212.021z"  horiz-adv-x="1024" />

    
    <glyph glyph-name="daipingjia" unicode="&#58893;" d="M759.197538 517.179077h-472.615384a19.692308 19.692308 0 0 1 0-39.384615h472.615384a19.692308 19.692308 0 1 1 0 39.384615zM759.197538 349.774769h-472.615384a19.692308 19.692308 0 1 1 0-39.384615h472.615384a19.692308 19.692308 0 1 1 0 39.384615zM1004.307692 405.326769a19.692308 19.692308 0 0 1 19.692308 19.692308V707.682462a78.769231 78.769231 0 0 1-78.769231 78.76923H78.769231a78.769231 78.769231 0 0 1-78.769231-78.76923v-578.028308c0-43.539692 35.268923-78.769231 78.769231-78.769231h341.326769l91.904-91.884308 91.884308 91.884308H945.230769c43.500308 0 78.769231 35.229538 78.769231 78.769231v108.288a19.692308 19.692308 0 1 1-39.384615 0v-108.288a39.384615 39.384615 0 0 0-39.384616-39.384616H587.579077L512 14.690462l-75.579077 75.579076H78.769231a39.384615 39.384615 0 0 0-39.384616 39.384616V707.682462a39.384615 39.384615 0 0 0 39.384616 39.384615h866.461538a39.384615 39.384615 0 0 0 39.384616-39.384615v-282.663385a19.692308 19.692308 0 0 1 19.692307-19.692308z"  horiz-adv-x="1024" />

    
    <glyph glyph-name="richscan_icon" unicode="&#58626;" d="M122.9027099609375 475.55181884765625a22.88177490234375 22.88177490234375 0 0 1 22.890014648437504 22.890014648437504V750.207275390625h251.76544189453125a22.890014648437504 22.890014648437504 0 1 1 0 45.78002929687501H122.9027099609375A22.88177490234375 22.88177490234375 0 0 1 100.0126953125 773.0972900390625v-274.65545654296875a22.88177490234375 22.88177490234375 0 0 1 22.890014648437504-22.890014648437504zM397.55816650390625 17.792724609375H145.792724609375V269.55816650390625a22.890014648437504 22.890014648437504 0 1 1-45.78002929687501 0v-274.65545654296875A22.88177490234375 22.88177490234375 0 0 1 122.9027099609375-27.9873046875h274.65545654296875a22.890014648437504 22.890014648437504 0 0 1 0 45.78002929687501zM901.0972900390625 795.9873046875H626.4418334960938a22.890014648437504 22.890014648437504 0 1 1 0-45.78002929687501h251.76544189453125v-251.76544189453125a22.890014648437504 22.890014648437504 0 1 1 45.78002929687501 0V773.0972900390625A22.873535156250004 22.873535156250004 0 0 1 901.0972900390625 795.9873046875zM901.0972900390625 292.44818115234375a22.873535156250004 22.873535156250004 0 0 1-22.890014648437504-22.890014648437504v-251.76544189453125H626.4418334960938a22.890014648437504 22.890014648437504 0 1 1 0-45.78002929687501h274.65545654296875a22.873535156250004 22.873535156250004 0 0 1 22.890014648437504 22.890014648437504V269.55816650390625a22.873535156250004 22.873535156250004 0 0 1-22.890014648437504 22.890014648437504zM901.0972900390625 406.8900146484375H122.9027099609375a22.890014648437504 22.890014648437504 0 0 1 0-45.78002929687501h778.194580078125a22.890014648437504 22.890014648437504 0 0 1 0 45.78002929687501z"  horiz-adv-x="1024" />

    
    <glyph glyph-name="fanhui" unicode="&#58917;" d="M710.153924 887.019603L266.007127 435.307476a81.118646 81.118646 0 0 1 0.861532-114.476097l446.192936-441.050666a26.922883 26.922883 0 0 1 37.853573 38.284339L304.722232 359.115718a27.27288 27.27288 0 0 0-0.323074 38.445877L748.545955 849.273722A26.922883 26.922883 0 1 1 710.180847 886.99268z"  horiz-adv-x="1024" />

    
    <glyph glyph-name="wodezuji" unicode="&#58896;" d="M190.464 562.176m-59.392 0a59.392 59.392 0 1 1 118.784 0 59.392 59.392 0 1 1-118.784 0ZM282.624 650.24c8.192-6.144 22.528-6.144 26.624-6.144h2.048c12.288 0 26.624 8.192 32.768 16.384 2.048 2.048 51.2 55.296 145.408 36.864 16.384-4.096 30.72 0 38.912 6.144 6.144 6.144 12.288 12.288 12.288 22.528 2.048 22.528-8.192 36.864-34.816 40.96-141.312 22.528-215.04-51.2-227.328-67.584-8.192-8.192-12.288-16.384-10.24-24.576 0-10.24 6.144-18.432 14.336-24.576zM876.544 148.48c-4.096 43.008-34.816 102.4-65.536 126.976-6.144 6.144-14.336 8.192-22.528 6.144-8.192 0-14.336-4.096-20.48-12.288-4.096-4.096-6.144-10.24-4.096-16.384 0-8.192 6.144-18.432 16.384-24.576 16.384-14.336 47.104-59.392 49.152-83.968 0-20.48-8.192-43.008-24.576-61.44-18.432-18.432-40.96-28.672-61.44-28.672-24.576 0-57.344 14.336-73.728 30.72-4.096 4.096-14.336 18.432-24.576 34.816-18.432 24.576-38.912 57.344-51.2 71.68-30.72 36.864-75.776 53.248-133.12 51.2h-4.096c-51.2 6.144-98.304 34.816-131.072 77.824-30.72 40.96-43.008 88.064-36.864 131.072 6.144 45.056 38.912 94.208 77.824 116.736 49.152 30.72 110.592 40.96 165.888 30.72 55.296-12.288 116.736-45.056 147.456-79.872 30.72-34.816 47.104-86.016 38.912-129.024-2.048-18.432-8.192-32.768-14.336-45.056-2.048-2.048-2.048-4.096-4.096-6.144-6.144-10.24-12.288-18.432-10.24-28.672 0-4.096 4.096-6.144 8.192-8.192 8.192-4.096 16.384-6.144 24.576-2.048 8.192 2.048 14.336 8.192 18.432 14.336 12.288 20.48 20.48 43.008 22.528 67.584 8.192 61.44-10.24 120.832-53.248 172.032-43.008 49.152-104.448 79.872-172.032 90.112-67.584 10.24-137.216-2.048-190.464-36.864-57.344-34.816-92.16-88.064-102.4-147.456-8.192-53.248 8.192-108.544 45.056-157.696 40.96-53.248 102.4-90.112 161.792-98.304 2.048 0 6.144 0 10.24-2.048 24.576-2.048 67.584-6.144 94.208-34.816 18.432-20.48 45.056-57.344 61.44-79.872 10.24-16.384 14.336-20.48 16.384-20.48 26.624-32.768 65.536-53.248 108.544-53.248 40.96 0 79.872 18.432 106.496 47.104 18.432 22.528 30.72 55.296 26.624 88.064z"  horiz-adv-x="1024" />

    
    <glyph glyph-name="youjiantou" unicode="&#58627;" d="M683.98079999 384L267.6224 800.3328 303.8208 836.5568 720.4608 419.9168 756.3776 384 303.8208-68.55679999999995 267.6224-32.33280000000002Z"  horiz-adv-x="1024" />

    
    <glyph glyph-name="shezhi" unicode="&#58943;" d="M83.171556 256c-17.635556 0-83.171556 0-83.171556 32.028444V479.971556c0 32.028444 65.536 32.028444 83.171556 32.028444h53.76l18.488888 55.352889L102.4 588.8c-12.515556 12.515556-41.528889 93.297778-29.013333 105.813333L204.8 822.613333c12.515556 12.515556 38.684444 12.515556 51.2 0l72.647111-82.033777 55.352889 18.488888V864.028444c0 17.635556 14.336 31.971556 32.028444 31.971556h192c17.635556 0 31.971556-14.336 31.971556-32.028444v-104.903112l55.352889-18.488888 82.033778 82.033777c12.515556 12.515556 32.768 12.515556 45.226666 0l128-128c12.515556-12.515556 12.515556-32.768 0-45.226666l-82.033777-82.033778 18.488888-55.352889h104.96c17.635556 0 31.971556-14.336 31.971556-32.028444v-192c0-17.635556-14.336-31.971556-32.028444-31.971556h-104.903112l-18.488888-55.352889 82.033777-82.033778c12.515556-12.515556 12.515556-32.768 0-45.226666l-128-128a31.971556 31.971556 0 0 0-45.226666 0l-82.033778 82.033777-55.352889-18.488888v-104.96c0-17.635556-14.336-31.971556-32.028444-31.971556H416.028444a32.028444 32.028444 0 0 0-32.028444 32.028444v104.903112l-55.352889 18.488888-82.033778-82.033777a31.971556 31.971556 0 0 0-45.226666 0l-128 128a31.971556 31.971556 0 0 0 0 45.226666l82.033777 82.033778-18.488888 55.352889h-53.76zM113.777778 440.888889v-113.777778h85.333333a28.444444 28.444444 0 0 0 26.965333-19.456l28.444445-85.333333a28.444444 28.444444 0 0 0-6.826667-29.070222L182.442667 128 256 54.442667l65.194667 65.194666a28.444444 28.444444 0 0 0 29.127111 6.883556l85.333333-28.444445A28.444444 28.444444 0 0 0 455.111111 71.111111V-14.222222h113.777778v85.333333a28.444444 28.444444 0 0 0 19.456 26.965333l85.333333 28.444445a28.387556 28.387556 0 0 0 29.070222-6.826667l65.251556-65.251555 73.557333 73.557333-65.194666 65.194667a28.444444 28.444444 0 0 0-6.883556 29.127111l28.444445 85.333333A28.444444 28.444444 0 0 0 824.888889 327.111111H910.222222V440.888889h-85.333333a28.444444 28.444444 0 0 0-26.965333 19.456l-28.444445 85.333333a28.444444 28.444444 0 0 0 6.826667 29.127111L841.557333 640 768 713.557333l-65.194667-65.251555a28.387556 28.387556 0 0 0-29.127111-6.826667l-85.333333 28.444445A28.444444 28.444444 0 0 0 568.888889 696.888889V782.222222H455.111111v-85.333333a28.444444 28.444444 0 0 0-19.456-26.965333l-85.333333-28.444445a28.444444 28.444444 0 0 0-29.127111 6.826667L256 713.557333 182.442667 640l65.251555-65.194667a28.444444 28.444444 0 0 0 6.826667-29.127111l-28.444445-85.333333A28.444444 28.444444 0 0 0 199.111111 440.888889H113.777778zM512 440.888889a56.945778 56.945778 0 0 0 0-113.777778 56.945778 56.945778 0 0 0 0 113.777778z m0-227.555556c94.094222 0 170.666667 76.572444 170.666667 170.666667s-76.572444 170.666667-170.666667 170.666667-170.666667-76.572444-170.666667-170.666667 76.572444-170.666667 170.666667-170.666667z"  horiz-adv-x="1024" />

    
    <glyph glyph-name="shoucangtubiao-" unicode="&#58882;" d="M367.010848 326.79001700000003h-115.593968c-15.894171 0-28.898492 12.823706-28.898492 28.898492 0 15.894171 13.004321 28.898492 28.898492 28.898492h86.605168v86.605168c0 15.894171 13.004321 28.898492 28.898492 28.898492s28.898492-13.004321 28.898492-28.898492v-115.593968c0-15.894171-12.823706-28.808184-28.808184-28.808184z m315.986947-82.089779c-55.90052 0-102.589646-39.103272-114.871505-91.210865h-111.710733c-12.281859 52.197901-58.970985 91.301173-114.871505 91.301173-65.29253 0-118.303201-53.100979-118.303202-118.303201 0-65.29253 53.100979-118.393509 118.303202-118.39351 54.455596 0 99.970721 37.297116 113.607196 87.598554h114.058735c13.636476-50.301438 59.151601-87.508246 113.787812-87.508246 65.202222 0 118.303201 53.100979 118.303202 118.303202-0.090308 65.29253-53.100979 118.212894-118.303202 118.212893z m-341.453743-178.809419c-33.413881 0-60.506217 27.182644-60.506218 60.686833 0 33.413881 27.182644 60.506217 60.506218 60.506218 33.413881 0 60.506217-27.182644 60.506217-60.506218 0-33.504189-27.182644-60.686833-60.506217-60.686833z m341.453743 0c-33.413881 0-60.506217 27.182644-60.506217 60.506218s27.182644 60.506217 60.506217 60.506217c33.413881 0 60.41591-27.182644 60.41591-60.506217s-27.002028-60.506217-60.41591-60.506218z m146.027692 694.015346h-418.937825c-39.645119 0-71.975306-32.23988-71.975306-71.975307v-83.444395l-175.648647-88.321016c-1.264309-0.632155-2.43831-1.354617-3.612311-2.167387-32.601111-22.84787-50.482053-58.609754-50.482053-100.693183V122.78472499999998c0-15.984478 13.004321-28.898492 28.898492-28.898492s28.898492 12.823706 28.898492 28.898492v290.520152c0 22.576947 8.218009 40.096658 24.383102 52.197901l189.556046 95.184408c1.354617 0.632155 2.167387 1.806156 3.25108 2.618926 1.715848 1.264309 3.341388 2.257695 4.876621 3.702619 1.264309 1.354617 2.167387 3.070465 3.070464 4.605697 0.993386 1.535232 1.986771 3.070465 2.709234 4.696005 0.632155 1.896464 0.903078 3.973543 1.264309 6.050622 0.180616 1.444925 0.81277 2.709234 0.81277 4.06385v101.325338c0 7.76647 6.411853 14.178323 14.178323 14.178322H829.025487c15.894171 0 28.898492-13.184937 28.898492-29.350031v-548.168269c0-15.984478 13.004321-28.898492 28.898492-28.898491 15.984478 0 28.898492 13.004321 28.898492 28.898491v548.168269c0 48.314666-38.922656 87.32763-86.695476 87.327631z"  horiz-adv-x="1024" />

    


  </font>
</defs>
</svg>
